<?xml version="1.0" standalone="no"?><svg xmlns="http://www.w3.org/2000/svg" viewBox="0 0 1440 320"><path fill="#01538a" fill-opacity="1" d="M0,288L34.3,282.7C68.6,277,137,267,206,240C274.3,213,343,171,411,154.7C480,139,549,149,617,170.7C685.7,192,754,224,823,208C891.4,192,960,128,1029,101.3C1097.1,75,1166,85,1234,106.7C1302.9,128,1371,160,1406,176L1440,192L1440,320L1405.7,320C1371.4,320,1303,320,1234,320C1165.7,320,1097,320,1029,320C960,320,891,320,823,320C754.3,320,686,320,617,320C548.6,320,480,320,411,320C342.9,320,274,320,206,320C137.1,320,69,320,34,320L0,320Z"></path></svg>